<svg xmlns="http://www.w3.org/2000/svg" width="70" height="70" viewBox="0 0 70 70">
    <defs>
        <style>
            .cls-1{fill:#92d0ff}.cls-2{fill:#fff;stroke:#fff}
        </style>
    </defs>
    <g id="그룹_635" data-name="그룹 635" transform="translate(-176 -2144)">
        <path id="패스_955" d="M35 0A35 35 0 1 1 0 35 35 35 0 0 1 35 0z" class="cls-1" data-name="패스 955" transform="translate(176 2144)"/>
        <g id="그룹_571" data-name="그룹 571" transform="translate(178.628 2146.698)">
            <g id="Layer_3" data-name="Layer 3" transform="translate(17.919 15.906)">
                <g id="그룹_570" data-name="그룹 570">
                    <g id="그룹_566" data-name="그룹 566" transform="translate(0 19.266)">
                        <path id="패스_941" d="M486.848 709.7h-27.477a.654.654 0 0 1-.654-.654v-9.262a.653.653 0 0 1 .654-.654h8.5a.654.654 0 0 1 .654.654v1.85a.655.655 0 0 0 .654.654h7.851a.655.655 0 0 0 .654-.654v-1.85a.653.653 0 0 1 .654-.654h8.5a.654.654 0 0 1 .654.654v9.262a.654.654 0 0 1-.654.654zm-26.823-1.3h26.169v-7.954H479v1.2a1.965 1.965 0 0 1-1.963 1.963h-7.851a1.965 1.965 0 0 1-1.963-1.963v-1.2h-7.2v7.954z" class="cls-2" data-name="패스 941" transform="translate(-458.717 -699.133)"/>
                    </g>
                    <g id="그룹_567" data-name="그룹 567" transform="translate(1.807 8.597)">
                        <path id="패스_942" d="M484.958 702.755a.654.654 0 0 1-.654-.654v-9.813h-22.9v9.812a.654.654 0 0 1-1.308 0v-10.467a.653.653 0 0 1 .654-.654h24.206a.654.654 0 0 1 .654.654V702.1a.654.654 0 0 1-.654.654z" class="cls-2" data-name="패스 942" transform="translate(-460.098 -690.979)"/>
                    </g>
                    <g id="그룹_568" data-name="그룹 568" transform="translate(3.333 4.423)">
                        <path id="패스_943" d="M483.073 689.787h-21.155a.654.654 0 1 1 0-1.309h21.155a.654.654 0 0 1 0 1.309z" class="cls-2" data-name="패스 943" transform="translate(-461.264 -688.479)"/>
                    </g>
                    <g id="그룹_569" data-name="그룹 569" transform="translate(4.587)">
                        <path id="패스_944" d="M481.522 687.787h-18.645a.654.654 0 1 1 0-1.308h18.645a.654.654 0 1 1 0 1.308z" class="cls-2" data-name="패스 944" transform="translate(-462.223 -686.479)"/>
                    </g>
                </g>
            </g>
        </g>
    </g>
</svg>
