<svg xmlns="http://www.w3.org/2000/svg" width="14.021" height="22" viewBox="0 0 14.021 22">
    <g id="prefix__그룹_906" data-name="그룹 906" transform="translate(-102 -486)">
        <g id="prefix__그룹_901" data-name="그룹 901" transform="translate(102 485.733)">
            <path id="prefix__패스_1007" d="M0 0h14v22H0z" data-name="패스 1007" transform="translate(0 .267)" style="fill:none"/>
        </g>
        <g id="prefix__layer1" transform="translate(20.143 251.539)">
            <path id="prefix__path3723" d="M95.489 245.472h-1.947v2.337l-.779-.519-.779.519v-2.337h-1.948a.391.391 0 00-.389.389v4.674a.391.391 0 00.389.389h5.453a.391.391 0 00.389-.389v-4.674a.391.391 0 00-.389-.389zm-9.348-1.558h5.453a.391.391 0 00.389-.389v-4.675a.391.391 0 00-.389-.39h-1.947v2.34l-.779-.519-.779.519v-2.337h-1.948a.391.391 0 00-.389.39v4.674a.391.391 0 00.389.387zm1.558 1.558h-1.947v2.337l-.779-.519-.779.519v-2.337h-1.948a.391.391 0 00-.389.389v4.674a.391.391 0 00.389.389H87.7a.391.391 0 00.389-.389v-4.674a.391.391 0 00-.389-.389z" style="fill:#aba0f1"/>
        </g>
    </g>
</svg>
