<svg xmlns="http://www.w3.org/2000/svg" width="70" height="70" viewBox="0 0 70 70">
    <defs>
        <style>
            .cls-1{fill:#dcdcdc}.cls-2{fill:#fff;stroke:#fff}
        </style>
    </defs>
    <g id="그룹_642" data-name="그룹 642" transform="translate(-176 -2287)">
        <circle id="타원_54" cx="35" cy="35" r="35" class="cls-1" data-name="타원 54" transform="translate(176 2287)"/>
        <g id="그룹_563" data-name="그룹 563" transform="translate(178.7 2288.952)">
            <g id="Layer_3" data-name="Layer 3" transform="translate(17.092 22.055)">
                <g id="그룹_562" data-name="그룹 562">
                    <g id="그룹_560" data-name="그룹 560">
                        <path id="패스_938" d="M718.391 834.069a112.782 112.782 0 0 1-13.495-.816.657.657 0 0 1-.563-.5 41.249 41.249 0 0 1 0-19.363.66.66 0 0 1 .563-.5 112.738 112.738 0 0 1 26.99 0 .662.662 0 0 1 .564.5 41.249 41.249 0 0 1 0 19.363.659.659 0 0 1-.564.5 112.769 112.769 0 0 1-13.5.816zM705.513 832a111.355 111.355 0 0 0 25.756 0 39.846 39.846 0 0 0 0-17.852 111.369 111.369 0 0 0-25.756 0 39.885 39.885 0 0 0 0 17.852z" class="cls-2" data-name="패스 938" transform="translate(-703.181 -812.076)"/>
                    </g>
                    <g id="그룹_561" data-name="그룹 561" transform="translate(11.315 5.183)">
                        <path id="패스_939" d="M712.938 827.634a1.228 1.228 0 0 1-1.192-1.34v-8.962a1.234 1.234 0 0 1 1.946-1.123l7.761 4.483a1.23 1.23 0 0 1 0 2.243l-7.761 4.481a1.508 1.508 0 0 1-.754.218zm.143-10.253l-.013 8.855 7.674-4.416-7.661-4.439z" class="cls-2" data-name="패스 939" transform="translate(-711.746 -816)"/>
                    </g>
                </g>
            </g>
        </g>
    </g>
</svg>
