<svg xmlns="http://www.w3.org/2000/svg" width="70" height="70" viewBox="0 0 70 70">
    <defs>
        <style>
            .cls-1{fill:#dcdcdc}.cls-2{fill:#fff;stroke:#fff}
        </style>
    </defs>
    <g id="그룹_638" data-name="그룹 638" transform="translate(-832 -2144)">
        <circle id="타원_53" cx="35" cy="35" r="35" class="cls-1" data-name="타원 53" transform="translate(832 2144)"/>
        <g id="그룹_546" data-name="그룹 546" transform="translate(834.643 2148.222)">
            <g id="Layer_3" data-name="Layer 3" transform="translate(17.208 19.993)">
                <g id="그룹_545" data-name="그룹 545">
                    <g id="그룹_542" data-name="그룹 542">
                        <path id="패스_926" d="M181.12 835.794h-28.341a.654.654 0 0 1-.654-.654v-23.615a.654.654 0 0 1 .654-.654h28.341a.654.654 0 0 1 .654.654v23.615a.654.654 0 0 1-.654.654zm-27.687-1.308h27.033v-22.307h-27.033v22.307z" class="cls-2" data-name="패스 926" transform="translate(-152.125 -810.871)"/>
                    </g>
                    <g id="그룹_543" data-name="그룹 543" transform="translate(0 8.614)">
                        <path id="패스_927" d="M181.074 829.454a.657.657 0 0 1-.412-.146l-6.451-5.257-6.5 4.332-8.391-9.025-6.072 6.266a.653.653 0 1 1-.939-.909l7.029-7.258 8.572 9.22 6.379-4.251 7.2 5.866a.655.655 0 0 1-.415 1.161z" class="cls-2" data-name="패스 927" transform="translate(-152.125 -817.457)"/>
                    </g>
                    <g id="그룹_544" data-name="그룹 544" transform="translate(12.347 3.597)">
                        <path id="패스_928" d="M165.6 821.691a4.035 4.035 0 1 1 4.034-4.036 4.041 4.041 0 0 1-4.034 4.036zm0-6.762a2.727 2.727 0 1 0 2.726 2.726 2.729 2.729 0 0 0-2.726-2.726z" class="cls-2" data-name="패스 928" transform="translate(-161.565 -813.621)"/>
                    </g>
                </g>
            </g>
        </g>
    </g>
</svg>
