<svg xmlns="http://www.w3.org/2000/svg" id="그룹_816" width="36" height="36" data-name="그룹 816" viewBox="0 0 36 36">
    <defs>
        <style>
            .cls-1{fill:#a7a7a7}.cls-2,.cls-3{fill:none}.cls-3{stroke:#a7a7a7}.cls-4{stroke:none}
        </style>
    </defs>
    <g id="그룹_815" data-name="그룹 815" transform="translate(7 8)">
        <g id="그룹_814" data-name="그룹 814">
            <g id="그룹_813" data-name="그룹 813" transform="translate(1)">
                <g id="그룹_812" data-name="그룹 812">
                    <path id="패스_986" d="M361.793 308.786c-.051.06-.092.125-.148.182l-1.212 1.212a3 3 0 0 1-4.242-4.241l1.212-1.211c.058-.058.125-.1.186-.152l3.129-3.129a5.535 5.535 0 0 0-5.132 1.462l-1.212 1.212A5.57 5.57 0 0 0 362.25 312l1.212-1.212a5.528 5.528 0 0 0 1.462-5.131z" class="cls-1" data-name="패스 986" transform="translate(-352.746 -294.148)"/>
                    <path id="패스_987" d="M371.508 294.863a5.577 5.577 0 0 0-7.876 0l-1.211 1.212a5.531 5.531 0 0 0-1.631 3.938 5.165 5.165 0 0 0 .162 1.2l3.127-3.127c.054-.064.1-.134.159-.193l1.212-1.212a3 3 0 1 1 4.24 4.242l-1.211 1.211c-.057.057-.123.1-.184.15l-3.133 3.133a5.165 5.165 0 0 0 1.2.163 5.552 5.552 0 0 0 3.939-1.629l1.211-1.211a5.576 5.576 0 0 0-.004-7.877z" class="cls-1" data-name="패스 987" transform="translate(-353.746 -293.235)"/>
                </g>
                <path id="패스_988" d="M359.559 308.1a1.286 1.286 0 0 1-.909-2.2l6.854-6.854a1.285 1.285 0 1 1 1.817 1.818l-6.853 6.855a1.281 1.281 0 0 1-.909.381z" class="cls-1" data-name="패스 988" transform="translate(-353.25 -293.688)"/>
            </g>
            <path id="사각형_1507" d="M0 0h22v20.087H0z" class="cls-2" data-name="사각형 1507"/>
        </g>
    </g>
    <g id="타원_67" class="cls-3" data-name="타원 67">
        <circle cx="18" cy="18" r="18" class="cls-4"/>
        <circle cx="18" cy="18" r="17.5" class="cls-2"/>
    </g>
</svg>
